<svg id="e5bc56ae-362f-4dd6-b3b0-e41eff2c87bd" data-name="Layer 1" xmlns="http://www.w3.org/2000/svg" viewBox="0 0 841.89 249.48"><title>boomvel</title><path d="M183.85,84.88l6.45,6.7a6,6,0,0,1,0,8.43l-4.22,4.22a52.35,52.35,0,0,1,4.46,21.32,50.27,50.27,0,0,1-6.94,25.79,51.82,51.82,0,0,1-18.72,18.85,51.86,51.86,0,0,1-51.83,0,52.11,52.11,0,0,1-18.72-18.73,51.84,51.84,0,0,1,0-51.82,52.16,52.16,0,0,1,18.72-18.72A50.12,50.12,0,0,1,139,74a52.4,52.4,0,0,1,21.32,4.47l4.22-4.22a6,6,0,0,1,8.43,0l6.45,6.45,12.89-12.9L196.74,72Zm-64,21.58A15.25,15.25,0,0,1,131,101.75a3.87,3.87,0,0,0,2.85-1.12A4,4,0,0,0,131,93.81a23.7,23.7,0,0,0-23.8,23.81,4,4,0,1,0,7.93,0A15.25,15.25,0,0,1,119.87,106.46ZM190.3,64.8a2.68,2.68,0,0,0,2.1-1,3.16,3.16,0,0,0,.87-2.11,3,3,0,0,0-1-2.11l-4.22-4.21a2.32,2.32,0,0,0-2-1,2.68,2.68,0,0,0-2.11,1,3.18,3.18,0,0,0-.86,2.1,3.41,3.41,0,0,0,.74,2.11l4.21,4.22A3.11,3.11,0,0,0,190.3,64.8ZM194.39,51a2.85,2.85,0,0,0-.87,2.1v6a3,3,0,1,0,5.95,0v-6a3,3,0,0,0-5.08-2.1Zm14.75,8.55a3.43,3.43,0,0,0,.75-2.11,3.14,3.14,0,0,0-.87-2.1,2.68,2.68,0,0,0-2.11-1,2.32,2.32,0,0,0-2,1l-4.22,4.21a3,3,0,1,0,4.22,4.22ZM202.7,71.25a2.7,2.7,0,0,0-2.11,1,3.14,3.14,0,0,0-.87,2.11,3,3,0,0,0,1,2.1l4.22,4.22a2.34,2.34,0,0,0,2,1,2.7,2.7,0,0,0,2.11-1,3.16,3.16,0,0,0,.87-2.11,3.45,3.45,0,0,0-.75-2.11l-4.21-4.21A3.09,3.09,0,0,0,202.7,71.25Zm2.72-6.2a3,3,0,0,0-2.1,5.08,2.85,2.85,0,0,0,2.1.87h6a3,3,0,0,0,2.11-5.09,2.9,2.9,0,0,0-2.11-.86Z" style="fill:#d5696e"/><path d="M327.52,147.29a29.94,29.94,0,0,1-30,30.12h-43V74.46h43A27.5,27.5,0,0,1,325,101.91a28,28,0,0,1-9.54,21C322.82,128.22,327.52,137.63,327.52,147.29Zm-12.59.13a17.82,17.82,0,0,0-17.79-17.67H271.46c-3.68,0-4.83-.64-4.83-.64v36.23h30.64A18,18,0,0,0,314.93,147.42ZM266.76,87V114.5c0,1,.64,2.79,4.45,2.79h26.18a15.3,15.3,0,0,0,15.13-15.38,15.08,15.08,0,0,0-15.13-15.12Z" style="fill:#929496"/><path d="M337.05,138.77c0-21,14.88-38.76,33.94-38.76,20.72,0,33.94,19.32,33.94,38.76,0,20.85-15.13,38.64-33.94,38.64C350.4,177.41,337.05,158.22,337.05,138.77Zm12.33-.12c0,15.12,10.17,26.44,21.61,26.44s21.61-11.32,21.61-26.44S382.43,112.08,371,112.08,349.38,123.65,349.38,138.65Z" style="fill:#929496"/><path d="M416.63,138.77c0-21,14.87-38.76,33.93-38.76,20.72,0,33.94,19.32,33.94,38.76,0,20.85-15.12,38.64-33.94,38.64C430,177.41,416.63,158.22,416.63,138.77Zm12.33-.12c0,15.12,10.16,26.44,21.6,26.44s21.61-11.32,21.61-26.44S462,112.08,450.56,112.08,429,123.65,429,138.65Z" style="fill:#929496"/><path d="M600.55,130.13v47.28H588.22V130.13c0-10.17-7.5-17.92-16.14-17.92s-16.14,7.75-16.14,17.92v47.28H543.61V130.13c0-10.17-7.5-17.92-16.14-17.92s-16.15,7.75-16.15,17.92v47.28H499V130.13c0-16.65,12.59-30.12,28.48-30.12a28,28,0,0,1,22.37,11.31c4.57-6.87,13.6-11.31,22.37-11.31C588,100,600.55,114,600.55,130.13Z" style="fill:#929496"/><path d="M647.59,177.41,618.73,100H632l20.85,55.54L673.39,100h13.22l-28.85,77.4Z" style="fill:#929496"/><path d="M695,139.92c0-20.34,13.22-39.91,32.79-39.91,14.75,0,25.55,8.51,25.55,20.33,0,12.84-12.71,21.48-28.47,21.48H711.78c-2.16,0-3.43,1.28-3.43,3.56,0,9.79,11.18,19.45,19.44,19.45,6.74,0,11.44-2.16,17.92-10.8l9.79,7.37c-6.61,8.9-14.74,16-27.45,16C708.73,177.41,695,159.37,695,139.92Zm13-8.65a7.27,7.27,0,0,1,5.21-1.78H725c10.29,0,16.14-4.44,16.14-9.15,0-3-3-8-13.09-8C718.9,112.34,710.76,119.83,708,131.27Z" style="fill:#929496"/><path d="M773,74.46h12.33v103H773Z" style="fill:#929496"/><path d="M57.85,110.72c2.34-5.75,7.28-10.7,12-15.64C84,80.43,83.2,77.64,79,72.88l9.35-9.35c4.85,4.32,7.73,5,22.29-9,4.94-4.76,9.88-9.7,15.64-12,7.28-3,14.38-1.26,20.31,4.85l4.58,4.77-9.43,9.43-4.77-4.94c-4.31-4.49-8.27-1.62-12.58,2.7-1.26,1.26-2.43,2.61-3.78,3.95C109.89,74,102.34,78.81,95,79.35c-.54,7.73-5,14.38-15.19,25.08-1.53,1.52-3.24,3-4.67,4.49-4.32,4.31-7.19,8.27-2.7,12.58l4.94,4.77-9.52,9.52-4.68-4.67C57.85,125.82,54.52,118.72,57.85,110.72Z" style="fill:#bbbcbf"/><path d="M129.12,197.09l9.53-9.52,4.77,4.94c4.31,4.49,8.17,1.53,12.49-2.79l4.58-4.58c10.61-10.25,17.26-14.74,25.08-15.19.54-7.55,5.48-15,16.18-25.71l3.5-3.5c4.4-4.4,7.55-8.45,3.06-12.76l-4.95-4.77,9.44-9.43,4.76,4.58c6,5.84,7.82,13,4.86,20.31-2.34,5.75-7.28,10.7-12,15.64-14,14.56-13.3,17.44-9,22.29L192,186c-4.76-4.23-7.64-5.12-22.2,9.07-4.94,4.77-9.89,9.71-15.64,12-8,3.32-15.1,0-20.4-5.3Z" style="fill:#bbbcbf"/></svg>