<svg id="e6f2c254-fef1-49d7-bc56-9d8b22e4583e" data-name="Layer 1" xmlns="http://www.w3.org/2000/svg" viewBox="0 0 1084.69 1084.69"><title>boomvel</title><path d="M825.78,284.89l41.75,43.36a38.76,38.76,0,0,1,0,54.59l-27.3,27.3a339.84,339.84,0,0,1,28.9,138.09q0,89.91-45,167t-121.23,122q-76.28,45-167.79,45t-167.8-45A337.34,337.34,0,0,1,246.12,716q-45-76.26-45-167.79t45-167.8A337.42,337.42,0,0,1,367.35,259.2q76.27-45,167.8-44.95a339.84,339.84,0,0,1,138.09,28.9l27.29-27.3a38.77,38.77,0,0,1,54.6,0l41.74,41.75,83.5-83.5,28.9,27.3ZM411.51,424.59q30.51-30.51,72.25-30.51,11.25,0,18.47-7.23t7.22-18.46q0-11.24-7.22-18.46t-18.47-7.23q-64.22,0-109.18,45t-45,109.19q0,11.23,7.22,18.46t18.47,7.22q11.24,0,18.46-7.22T381,496.85Q381,455.09,411.51,424.59Zm456-269.76a17.47,17.47,0,0,0,13.64-6.42q5.63-6.42,5.62-13.65t-6.42-13.65l-27.3-27.29a15.26,15.26,0,0,0-12.84-6.43,17.5,17.5,0,0,0-13.65,6.43Q821,100.24,821,107.46a22.31,22.31,0,0,0,4.82,13.65l27.29,27.3Q859.51,154.83,867.53,154.83ZM894,65.71a18.59,18.59,0,0,0-5.62,13.66V117.9a19.27,19.27,0,1,0,38.54,0V79.37A19.31,19.31,0,0,0,894,65.71Zm95.54,55.4a22.37,22.37,0,0,0,4.82-13.65q0-7.21-5.62-13.64a17.51,17.51,0,0,0-13.65-6.43,15.27,15.27,0,0,0-12.85,6.43L935,121.11q-6.42,6.42-6.42,13.65T935,148.41q6.43,6.42,13.65,6.42t13.65-6.42Zm-41.75,75.47A17.5,17.5,0,0,0,934.16,203q-5.62,6.42-5.62,13.65T935,230.3l27.3,27.3A15.26,15.26,0,0,0,975.11,264a17.5,17.5,0,0,0,13.65-6.42q5.61-6.42,5.62-13.65a22.37,22.37,0,0,0-4.82-13.65L962.26,203Q955.84,196.58,947.81,196.58Zm17.66-40.14a19.27,19.27,0,1,0,0,38.54H1004a19.27,19.27,0,1,0,0-38.54Z" style="fill:#d5696e"/><path d="M9.89,452.17C25,414.93,57,382.92,87.87,350.91,179.25,256,174,238,146.65,207.16l60.53-60.53c31.43,27.94,50.05,32.6,144.33-58.2,32-30.84,64-62.85,101.27-78C499.92-8.76,545.9,2.3,584.3,41.88L614,72.73l-61.11,61.1-30.85-32c-27.93-29.1-53.54-10.47-81.47,17.46-8.15,8.14-15.72,16.88-24.45,25.61C346.86,214.14,298,245.57,250.25,249.06c-3.49,50.05-32.59,93.12-98.36,162.37-9.89,9.9-20.95,19.79-30.25,29.1C93.7,468.47,75.07,494.07,104.17,522l32,30.85L74.49,614.55,44.23,584.29C9.89,550-11.65,504,9.89,452.17Z" style="fill:#bbbcbf"/><path d="M471.42,1011.48l61.69-61.7,30.84,32c27.94,29.1,53,9.89,80.9-18l29.68-29.69c68.67-66.34,111.74-95.44,162.37-98.35,3.49-48.88,35.5-97.19,104.76-166.44l22.69-22.7c28.52-28.52,48.89-54.71,19.79-82.64l-32-30.85L1013.24,472l30.84,29.69c39,37.82,50.64,84.38,31.43,131.52-15.13,37.25-47.14,69.26-78,101.26-90.79,94.29-86.14,112.92-58.2,144.34L878.8,939.31C848,912,829.33,906.14,735.05,998.08c-32,30.85-64,62.86-101.26,78-51.8,21.54-97.78,0-132.11-34.33Z" style="fill:#bbbcbf"/></svg>